<mxfile host="app.diagrams.net" modified="2024-01-28T15:43:44.783Z" agent="Mozilla/5.0 (X11; Ubuntu; Linux x86_64; rv:122.0) Gecko/20100101 Firefox/122.0" etag="kEUbPL_q_pybJB2LeQka" version="23.0.0" type="github">
  <diagram name="Page-1" id="uNsghrt_VY7BKmLyG3ex">
    <mxGraphModel dx="1674" dy="795" grid="1" gridSize="10" guides="1" tooltips="1" connect="1" arrows="1" fold="1" page="1" pageScale="1" pageWidth="850" pageHeight="1100" math="0" shadow="0">
      <root>
        <mxCell id="0" />
        <mxCell id="1" parent="0" />
        <mxCell id="JnNyC9-6WbZEc6l4hmL9-1" value="" style="rounded=0;whiteSpace=wrap;html=1;" vertex="1" parent="1">
          <mxGeometry x="40" y="120" width="170" height="200" as="geometry" />
        </mxCell>
        <mxCell id="JnNyC9-6WbZEc6l4hmL9-4" value="" style="shape=image;verticalLabelPosition=bottom;labelBackgroundColor=default;verticalAlign=top;aspect=fixed;imageAspect=0;image=https://github.githubassets.com/assets/GitHub-Mark-ea2971cee799.png;" vertex="1" parent="1">
          <mxGeometry x="60" y="140" width="40" height="40" as="geometry" />
        </mxCell>
        <mxCell id="JnNyC9-6WbZEc6l4hmL9-5" value="" style="shape=image;verticalLabelPosition=bottom;labelBackgroundColor=default;verticalAlign=top;aspect=fixed;imageAspect=0;image=https://logowik.com/content/uploads/images/gitlab8368.jpg;" vertex="1" parent="1">
          <mxGeometry x="110" y="140" width="66.61" height="50" as="geometry" />
        </mxCell>
        <mxCell id="JnNyC9-6WbZEc6l4hmL9-7" value="" style="shape=image;verticalLabelPosition=bottom;labelBackgroundColor=default;verticalAlign=top;aspect=fixed;imageAspect=0;image=https://logowik.com/content/uploads/images/google-colaboratory6512.jpg;clipPath=inset(17.56% 11.33% 22.89% 11%);" vertex="1" parent="1">
          <mxGeometry x="53.91" y="205" width="52.17" height="30" as="geometry" />
        </mxCell>
        <mxCell id="JnNyC9-6WbZEc6l4hmL9-8" value="" style="shape=image;verticalLabelPosition=bottom;labelBackgroundColor=default;verticalAlign=top;aspect=fixed;imageAspect=0;image=https://logowik.com/content/uploads/images/google-colaboratory6512.jpg;clipPath=inset(17.56% 11.33% 22.89% 11%);" vertex="1" parent="1">
          <mxGeometry x="124.44" y="205" width="52.17" height="30" as="geometry" />
        </mxCell>
        <mxCell id="JnNyC9-6WbZEc6l4hmL9-9" value="" style="shape=image;verticalLabelPosition=bottom;labelBackgroundColor=default;verticalAlign=top;aspect=fixed;imageAspect=0;image=https://logowik.com/content/uploads/images/gitlab8368.jpg;" vertex="1" parent="1">
          <mxGeometry x="53.91" y="250" width="66.61" height="50" as="geometry" />
        </mxCell>
        <mxCell id="JnNyC9-6WbZEc6l4hmL9-10" value="" style="shape=image;verticalLabelPosition=bottom;labelBackgroundColor=default;verticalAlign=top;aspect=fixed;imageAspect=0;image=https://github.githubassets.com/assets/GitHub-Mark-ea2971cee799.png;" vertex="1" parent="1">
          <mxGeometry x="136.61" y="255" width="40" height="40" as="geometry" />
        </mxCell>
        <mxCell id="JnNyC9-6WbZEc6l4hmL9-11" value="" style="shape=image;verticalLabelPosition=bottom;labelBackgroundColor=default;verticalAlign=top;aspect=fixed;imageAspect=0;image=https://logowik.com/content/uploads/images/gitlab8368.jpg;" vertex="1" parent="1">
          <mxGeometry x="620" y="150" width="66.61" height="50" as="geometry" />
        </mxCell>
        <mxCell id="JnNyC9-6WbZEc6l4hmL9-12" value="" style="shape=image;verticalLabelPosition=bottom;labelBackgroundColor=default;verticalAlign=top;aspect=fixed;imageAspect=0;image=https://logowik.com/content/uploads/images/google-colaboratory6512.jpg;clipPath=inset(17.56% 11.33% 22.89% 11%);" vertex="1" parent="1">
          <mxGeometry x="440.00000000000006" y="550" width="52.17" height="30" as="geometry" />
        </mxCell>
        <mxCell id="JnNyC9-6WbZEc6l4hmL9-13" value="" style="shape=image;verticalLabelPosition=bottom;labelBackgroundColor=default;verticalAlign=top;aspect=fixed;imageAspect=0;image=https://github.githubassets.com/assets/GitHub-Mark-ea2971cee799.png;" vertex="1" parent="1">
          <mxGeometry x="646.61" y="265" width="40" height="40" as="geometry" />
        </mxCell>
        <mxCell id="JnNyC9-6WbZEc6l4hmL9-14" value="" style="rounded=0;whiteSpace=wrap;html=1;" vertex="1" parent="1">
          <mxGeometry x="43" y="363" width="170" height="200" as="geometry" />
        </mxCell>
        <mxCell id="JnNyC9-6WbZEc6l4hmL9-15" value="" style="shape=image;verticalLabelPosition=bottom;labelBackgroundColor=default;verticalAlign=top;aspect=fixed;imageAspect=0;image=https://github.githubassets.com/assets/GitHub-Mark-ea2971cee799.png;" vertex="1" parent="1">
          <mxGeometry x="63" y="383" width="40" height="40" as="geometry" />
        </mxCell>
        <mxCell id="JnNyC9-6WbZEc6l4hmL9-17" value="" style="shape=image;verticalLabelPosition=bottom;labelBackgroundColor=default;verticalAlign=top;aspect=fixed;imageAspect=0;image=https://logowik.com/content/uploads/images/google-colaboratory6512.jpg;clipPath=inset(17.56% 11.33% 22.89% 11%);" vertex="1" parent="1">
          <mxGeometry x="56.91" y="448" width="52.17" height="30" as="geometry" />
        </mxCell>
        <mxCell id="JnNyC9-6WbZEc6l4hmL9-18" value="" style="shape=image;verticalLabelPosition=bottom;labelBackgroundColor=default;verticalAlign=top;aspect=fixed;imageAspect=0;image=https://logowik.com/content/uploads/images/google-colaboratory6512.jpg;clipPath=inset(17.56% 11.33% 22.89% 11%);" vertex="1" parent="1">
          <mxGeometry x="127.44" y="448" width="52.17" height="30" as="geometry" />
        </mxCell>
        <mxCell id="JnNyC9-6WbZEc6l4hmL9-19" value="" style="shape=image;verticalLabelPosition=bottom;labelBackgroundColor=default;verticalAlign=top;aspect=fixed;imageAspect=0;image=https://logowik.com/content/uploads/images/gitlab8368.jpg;" vertex="1" parent="1">
          <mxGeometry x="56.91" y="493" width="66.61" height="50" as="geometry" />
        </mxCell>
        <mxCell id="JnNyC9-6WbZEc6l4hmL9-20" value="" style="shape=image;verticalLabelPosition=bottom;labelBackgroundColor=default;verticalAlign=top;aspect=fixed;imageAspect=0;image=https://github.githubassets.com/assets/GitHub-Mark-ea2971cee799.png;" vertex="1" parent="1">
          <mxGeometry x="139.61" y="498" width="40" height="40" as="geometry" />
        </mxCell>
        <mxCell id="JnNyC9-6WbZEc6l4hmL9-21" value="" style="shape=image;verticalLabelPosition=bottom;labelBackgroundColor=default;verticalAlign=top;aspect=fixed;imageAspect=0;image=https://logowik.com/content/uploads/images/google-colaboratory6512.jpg;clipPath=inset(17.56% 11.33% 22.89% 11%);" vertex="1" parent="1">
          <mxGeometry x="133.44000000000005" y="395" width="52.17" height="30" as="geometry" />
        </mxCell>
        <mxCell id="JnNyC9-6WbZEc6l4hmL9-22" value="" style="rounded=0;whiteSpace=wrap;html=1;" vertex="1" parent="1">
          <mxGeometry x="40" y="610" width="170" height="200" as="geometry" />
        </mxCell>
        <mxCell id="JnNyC9-6WbZEc6l4hmL9-23" value="" style="shape=image;verticalLabelPosition=bottom;labelBackgroundColor=default;verticalAlign=top;aspect=fixed;imageAspect=0;image=https://github.githubassets.com/assets/GitHub-Mark-ea2971cee799.png;" vertex="1" parent="1">
          <mxGeometry x="620" y="660" width="40" height="40" as="geometry" />
        </mxCell>
        <mxCell id="JnNyC9-6WbZEc6l4hmL9-24" value="" style="shape=image;verticalLabelPosition=bottom;labelBackgroundColor=default;verticalAlign=top;aspect=fixed;imageAspect=0;image=https://logowik.com/content/uploads/images/gitlab8368.jpg;" vertex="1" parent="1">
          <mxGeometry x="110" y="630" width="66.61" height="50" as="geometry" />
        </mxCell>
        <mxCell id="JnNyC9-6WbZEc6l4hmL9-25" value="" style="shape=image;verticalLabelPosition=bottom;labelBackgroundColor=default;verticalAlign=top;aspect=fixed;imageAspect=0;image=https://logowik.com/content/uploads/images/google-colaboratory6512.jpg;clipPath=inset(17.56% 11.33% 22.89% 11%);" vertex="1" parent="1">
          <mxGeometry x="53.91" y="630" width="52.17" height="30" as="geometry" />
        </mxCell>
        <mxCell id="JnNyC9-6WbZEc6l4hmL9-26" value="" style="shape=image;verticalLabelPosition=bottom;labelBackgroundColor=default;verticalAlign=top;aspect=fixed;imageAspect=0;image=https://logowik.com/content/uploads/images/google-colaboratory6512.jpg;clipPath=inset(17.56% 11.33% 22.89% 11%);" vertex="1" parent="1">
          <mxGeometry x="124.44" y="695" width="52.17" height="30" as="geometry" />
        </mxCell>
        <mxCell id="JnNyC9-6WbZEc6l4hmL9-27" value="" style="shape=image;verticalLabelPosition=bottom;labelBackgroundColor=default;verticalAlign=top;aspect=fixed;imageAspect=0;image=https://logowik.com/content/uploads/images/gitlab8368.jpg;" vertex="1" parent="1">
          <mxGeometry x="46.69" y="685" width="66.61" height="50" as="geometry" />
        </mxCell>
        <mxCell id="JnNyC9-6WbZEc6l4hmL9-28" value="" style="shape=image;verticalLabelPosition=bottom;labelBackgroundColor=default;verticalAlign=top;aspect=fixed;imageAspect=0;image=https://github.githubassets.com/assets/GitHub-Mark-ea2971cee799.png;" vertex="1" parent="1">
          <mxGeometry x="136.61" y="745" width="40" height="40" as="geometry" />
        </mxCell>
        <mxCell id="JnNyC9-6WbZEc6l4hmL9-29" value="" style="shape=image;verticalLabelPosition=bottom;labelBackgroundColor=default;verticalAlign=top;aspect=fixed;imageAspect=0;image=https://logowik.com/content/uploads/images/gitlab8368.jpg;" vertex="1" parent="1">
          <mxGeometry x="49.69" y="750" width="66.61" height="50" as="geometry" />
        </mxCell>
      </root>
    </mxGraphModel>
  </diagram>
</mxfile>
